<?xml version="1.0" encoding="UTF-8"?>
<svg width="512px" height="512px" viewBox="0 0 512 512" version="1.1" xmlns="http://www.w3.org/2000/svg" xmlns:xlink="http://www.w3.org/1999/xlink">
  <!-- Generator: Sketch 52.4 (67378) - http://www.bohemiancoding.com/sketch -->
  <title>safari-tab-512x512</title>
  <desc>Created with Sketch.</desc>
  <g id="safari-tab-512x512-" stroke="none" stroke-width="1" fill="none" fill-rule="evenodd">
    <g id="Phoenix---safari-tab" fill="#000000">
      <g id="safari-pinned-tab" transform="translate(53.248000, 16.384000)">
        <g id="Group" transform="translate(202.752000, 239.616000) scale(-1, 1) rotate(-180.000000) translate(-202.752000, -239.616000) " fill-rule="nonzero">
          <path
            d="M324.444278,476.561993 C322.9381,475.124297 279.53281,431.651109 228.048932,380.030976 C176.565054,328.479305 134.186703,286.169966 133.912852,286.169966 C133.639002,286.169966 133.433614,326.425454 133.433614,375.649426 L133.433614,465.197349 L98.7230741,465.197349 L63.9440716,465.197349 L63.9440716,410.427977 L63.9440716,355.658606 L51.6892656,343.677806 C44.9799304,337.105481 30.6027837,323.002368 19.7172298,312.322341 L0,292.947675 L31.9720358,260.976055 L63.9440716,229.004434 L63.9440716,114.467986 L63.9440716,0 L98.7230741,0 L133.433614,0 L133.433614,79.2102034 C133.365151,122.820315 133.570539,158.968101 133.912852,159.652718 C134.186703,160.268873 141.443739,167.7312 149.933101,176.220453 L165.474112,191.624338 L261.321757,95.8464 L357.169402,0 L362.714873,5.750784 C366.754166,9.92694857 403.518585,47.7178149 405.435537,49.6347429 C405.572463,49.7032046 362.783335,92.6286994 310.477906,145.001911 C258.104015,197.375122 215.246425,240.369079 215.246425,240.574464 C215.246425,240.711387 254.749347,280.35072 302.94702,328.616229 L390.647615,416.315685 L372.299637,434.458039 C362.167172,444.453449 347.858488,458.556562 340.532989,465.881966 L327.182782,479.232 L324.444278,476.561993 Z M336.356771,443.768832 C349.570053,430.966491 363.125648,417.411072 363.125648,416.93184 C363.125648,416.52107 160.955581,214.627474 140.211412,194.294345 L134.11824,188.338176 L117.27644,204.905911 C93.4514537,228.319817 50.4569387,270.35531 37.8598197,282.609957 L27.1796536,293.016137 L42.9945149,308.69387 C51.6892656,317.320046 59.8363154,325.330066 61.1371048,326.562377 L63.533296,328.68469 L76.8835036,315.334656 C99.2023123,293.084599 133.433614,259.469897 133.775927,259.469897 C133.981315,259.469897 177.591993,302.874624 230.650511,355.932453 L327.182782,452.46347 L328.825884,450.957312 C329.715898,450.135771 333.070566,446.918071 336.356771,443.768832 Z"
            id="Shape"></path>
        </g>
      </g>
    </g>
  </g>
</svg>