<?xml version="1.0" encoding="UTF-8"?>
<svg width="512px" height="512px" viewBox="0 0 512 512" version="1.1" xmlns="http://www.w3.org/2000/svg" xmlns:xlink="http://www.w3.org/1999/xlink">
    <!-- Generator: Sketch 55.2 (78181) - https://sketchapp.com -->
    <title>safari-tab-512x512</title>
    <desc>Created with Sketch.</desc>
    <g id="safari-tab-512x512" stroke="none" stroke-width="1" fill="none" fill-rule="evenodd">
        <g id="OL" fill="#000000">
            <g id="logo-OL" transform="translate(0.512000, 77.824000)">
                <g id="Group" fill-rule="nonzero">
                    <path d="M377.61259,178.432 C377.61259,152.40192 356.628984,131.40992 330.609311,131.40992 C304.589639,131.40992 283.606033,152.40192 283.606033,178.432 C283.606033,192.70656 289.901115,205.30176 299.973246,213.69856 C284.865049,266.5984 235.76341,305.64352 177.848656,305.64352 C107.76341,305.64352 50.688,248.54528 50.688,178.432 C50.688,108.31872 107.76341,51.22048 177.848656,51.22048 C178.688,51.22048 179.527344,51.22048 180.366689,51.22048 C198.832262,29.80864 221.494557,12.17536 247.51423,0 L178.268328,0 C80.0650492,0 0.327344262,80.18944 0.327344262,178.432 C0.327344262,276.67456 80.0650492,356.864 178.688,356.864 C262.622426,356.864 332.707672,298.92608 351.592918,220.416 C367.120787,212.85888 377.61259,196.90496 377.61259,178.432 Z" id="Path"></path>
                    <path d="M331.028984,0 C247.094557,0 177.009311,58.35776 157.704393,136.448 C142.176525,144.00512 131.265049,159.95904 131.265049,178.432 C131.265049,204.46208 152.248656,225.45408 178.268328,225.45408 C204.288,225.45408 225.271607,204.46208 225.271607,178.432 C225.271607,164.15744 218.976525,151.56224 208.904393,143.16544 C224.01259,90.2656 273.11423,51.22048 331.028984,51.22048 C401.11423,51.22048 458.189639,108.31872 458.189639,178.432 C458.189639,248.54528 401.11423,305.64352 331.028984,305.64352 C330.189639,305.64352 329.350295,305.64352 328.510951,305.64352 C310.045377,327.05536 287.383082,344.68864 261.36341,356.864 L331.028984,356.864 C429.232262,356.864 509.389639,277.0944 509.389639,178.432 C508.969967,80.18944 429.232262,0 331.028984,0 Z" id="Path"></path>
                </g>
            </g>
        </g>
    </g>
</svg>